# xmcd
#
# Track frame offsets:
#        150
#        10597
#        20985
#        33447
#        42505
#        54177
#        64590
#        89225
#        105262
#        127765
#        137625
#        155472
#        168082
#        179370
#        189122
#        199587
#        213730
#        220005
#        230952
#
# Disc length: 3246 seconds
#
# Revision: 0
# Processed by: cddbd v1.5.1PL0 Copyright (c) Steve Scherf et al.
# Submitted via: ExactAudioCopy v0.95a5
#
DISCID=010cac13
DTITLE=Eric Clapton - The Great Blues Works 1963-1965
DYEAR=1991
DGENRE=Blues
TTITLE0=I Wish You Would
TTITLE1=A Certain Girl
TTITLE2=Good Morning Little Schoolgirl
TTITLE3=I Ain't Got You
TTITLE4=Got To Hurry
TTITLE5=Putty (In Your Hand)
TTITLE6=She's So Respectable
TTITLE7=Louise
TTITLE8=Five Long Years
TTITLE9=I'm Your Witchdoctor
TTITLE10=Telephone Blues
TTITLE11=On Top Of The World
TTITLE12=Snake Drive
TTITLE13=Tribute To Elmore
TTITLE14=West Coast Idea
TTITLE15=Draggin' My Tail
TTITLE16=Choker
TTITLE17=Miles Road
TTITLE18=Freight Loader
EXTD=
EXTT0=
EXTT1=
EXTT2=
EXTT3=
EXTT4=
EXTT5=
EXTT6=
EXTT7=
EXTT8=
EXTT9=
EXTT10=
EXTT11=
EXTT12=
EXTT13=
EXTT14=
EXTT15=
EXTT16=
EXTT17=
EXTT18=
PLAYORDER=
